<svg xmlns="http://www.w3.org/2000/svg" style="background: rgba(0, 0, 0, 0);" preserveAspectRatio="xMidYMid" viewBox="120.28 69.11 259.44 52.4"><defs><linearGradient id="editing-gradient-gradient" x1="0.9890738003669028" x2="0.010926199633097156" y1="0.39604415459112036" y2="0.6039558454088797" gradientUnits="objectBoundingBox"><stop offset="0" stop-color="#f0f"/><stop offset="1" stop-color="#0ff"/></linearGradient></defs><g><g transform="translate(119.08002161979675, 103.67059135437012)"><path d="M24.64-34.56L24.64-34.56Q25.08-34.56 25.30-34.14L25.30-34.14L25.30-34.14Q25.52-33.72 25.56-33.28L25.56-33.28L25.56-33.28Q25.56-32.32 25.16-31.52L25.16-31.52L25.16-31.52Q24.68-30.36 23.82-29.48L23.82-29.48L23.82-29.48Q22.96-28.60 21.88-28.48L21.88-28.48L21.88-28.48Q19.88-28.20 19.08-28.08L19.08-28.08L19.08-28.08Q19.96-25.64 20.32-23.36L20.32-23.36L20.32-23.36Q20.80-20.68 20.84-19.84L20.84-19.84L20.84-19.84Q20.92-18.72 20.92-18.12L20.92-18.12L20.92-18.12Q20.92-17.56 20.84-16.36L20.84-16.36L20.84-16.36Q20.60-11.92 19.88-9.32L19.88-9.32L19.88-9.32Q19.28-7.16 18.64-5.92L18.64-5.92L18.64-5.92Q18.08-4.72 17.60-3.94L17.60-3.94L17.60-3.94Q17.12-3.16 16.48-2.56L16.48-2.56L15.36-1.52L14.60-1.08L14.60-1.08Q14.12-0.72 13.48-0.72L13.48-0.72L13.48-0.72Q13.24-0.64 13.08-0.64L13.08-0.64L13.08-0.64Q11.52-0.72 10.20-1.36L10.20-1.36L10.20-1.36Q9.16-1.92 8.24-2.66L8.24-2.66L8.24-2.66Q7.32-3.40 6-4.60L6-4.60L1.72-8.44L1.72-8.44Q1.20-8.92 1.20-9.76L1.20-9.76L1.20-9.76Q1.20-10.92 2.16-12.40L2.16-12.40L2.16-12.40Q3.16-13.92 4.32-14.40L4.32-14.40L4.32-14.40Q4.64-14.56 4.96-14.56L4.96-14.56L4.96-14.56Q5.32-14.56 5.60-14.40L5.60-14.40L8.72-11.44L9.68-10.56L9.68-10.56Q11.20-9.16 12.30-8.32L12.30-8.32L12.30-8.32Q13.40-7.48 14.68-7L14.68-7L14.68-7Q14.76-6.96 14.92-6.96L14.92-6.96L14.92-6.96Q15.16-7.52 15.24-7.84L15.24-7.84L15.24-7.84Q15.68-9.28 16.08-12.24L16.08-12.24L16.08-12.24Q16.28-14.16 16.28-15.72L16.28-15.72L16.28-15.72Q16.28-16.64 16.24-17.08L16.24-17.08L16.16-17.92L16.16-17.92Q15.92-20.40 15.68-21.68L15.68-21.68L15.68-21.68Q15.12-24.32 14-26.40L14-26.40L14-26.40Q13.84-26.68 13.84-27.16L13.84-27.16L13.28-27.08L13.28-27.08Q9.76-26.20 8-25.72L8-25.72L8-25.72Q7.88-25.68 7.74-25.64L7.74-25.64L7.74-25.64Q7.60-25.60 7.40-25.60L7.40-25.60L7.40-25.60Q6.88-25.60 6.60-26.12L6.60-26.12L6.60-26.12Q6.48-26.48 6.48-26.84L6.48-26.84L6.48-26.84Q6.48-27.04 6.56-27.44L6.56-27.44L6.56-27.44Q6.80-28.72 7.84-29.84L7.84-29.84L7.84-29.84Q8.40-30.44 9.12-30.76L9.12-30.76L9.12-30.76Q11.68-31.48 12.96-31.88L12.96-31.88L12.96-31.88Q13.84-32.16 14.12-32.20L14.12-32.20L14.12-32.20Q15.56-32.64 16.44-32.84L16.44-32.84L16.44-32.84Q20.48-33.76 24.48-34.52L24.48-34.52L24.64-34.56ZM39-9.96L39-9.96Q39.92-12.12 39.92-14.40L39.92-14.40L39.92-14.40Q39.92-16.20 39.30-17.70L39.30-17.70L39.30-17.70Q38.68-19.20 37.36-20.16L37.36-20.16L37.36-20.16Q36.48-20.80 35.68-20.80L35.68-20.80L35.68-20.80Q35.36-20.80 34.88-20.64L34.88-20.64L34.88-20.64Q35.24-20.48 35.24-20.08L35.24-20.08L35.24-20.08Q35.24-19.84 35.08-19.52L35.08-19.52L35.08-19.52Q34.16-17.76 33.64-15.70L33.64-15.70L33.64-15.70Q33.12-13.64 33.12-11.56L33.12-11.56L33.12-11.56Q33.12-9.16 33.84-7L33.84-7L33.84-7Q34.32-5.80 34.84-5.12L34.84-5.12L34.84-5.12Q35.08-4.84 35.32-4.72L35.32-4.72L35.32-4.72Q36.48-5.52 37.42-6.96L37.42-6.96L37.42-6.96Q38.36-8.40 39-9.96L39-9.96ZM38.44-24L38.44-24Q40.40-23.60 41.80-22.28L41.80-22.28L41.80-22.28Q43.20-20.96 43.92-19.10L43.92-19.10L43.92-19.10Q44.64-17.24 44.64-15.24L44.64-15.24L44.64-15.24Q44.64-12.88 43.72-10.40L43.72-10.40L43.72-10.40Q42.80-7.92 41.20-5.84L41.20-5.84L41.20-5.84Q39.60-3.76 37.64-2.56L37.64-2.56L37.64-2.56Q35.80-1.44 34.04-1.44L34.04-1.44L34.04-1.44Q32.28-1.44 30.96-2.52L30.96-2.52L30.96-2.52Q29.64-3.60 29.04-5.64L29.04-5.64L29.04-5.64Q28.36-7.72 28.36-10.32L28.36-10.32L28.36-10.32Q28.36-11.88 28.60-13.36L28.60-13.36L28.60-13.36Q28.32-13.28 27.76-13.28L27.76-13.28L27.76-13.28Q26.40-13.28 26.40-14.20L26.40-14.20L26.40-14.20Q26.40-14.52 26.48-14.72L26.48-14.72L26.48-14.72Q27.84-18.52 30.58-21.34L30.58-21.34L30.58-21.34Q33.32-24.16 36.88-24.16L36.88-24.16L36.88-24.16Q37.40-24.16 38.44-24L38.44-24ZM62.64-11.36L62.76-10.52L62.76-10.52Q63.44-5.52 63.76-3.52L63.76-3.52L63.76-3.52Q63.92-2.52 62.88-1.76L62.88-1.76L62.88-1.76Q61.84-1 60.68-1L60.68-1L60.68-1Q60-1 59.56-1.30L59.56-1.30L59.56-1.30Q59.12-1.60 59.04-2.24L59.04-2.24L58.72-4.84L58.72-4.84Q58.16-9.24 57.80-11.44L57.80-11.44L57.80-11.44Q57.60-12.72 57.24-13.58L57.24-13.58L57.24-13.58Q56.88-14.44 56.08-14.88L56.08-14.88L56.08-14.88Q55.56-15.12 54.88-15.12L54.88-15.12L54.88-15.12Q54.04-15.12 53-14.84L53-14.84L53-14.84Q52.28-8.84 50.64-2.56L50.64-2.56L50.64-2.56Q50.44-1.72 49.22-1.10L49.22-1.10L49.22-1.10Q48-0.48 46.88-0.48L46.88-0.48L46.88-0.48Q46.16-0.48 45.80-0.74L45.80-0.74L45.80-0.74Q45.44-1 45.60-1.56L45.60-1.56L45.60-1.56Q47.36-7.88 48.12-14.20L48.12-14.20L48.12-14.20Q47.32-14.20 46.72-14.50L46.72-14.50L46.72-14.50Q46.12-14.80 46.12-15.28L46.12-15.28L46.12-15.28Q46.12-15.84 46.92-16.40L46.92-16.40L48.48-17.52L48.48-17.52Q48.80-21.08 48.80-25.60L48.80-25.60L48.80-25.60Q48.80-28.16 48.68-30.72L48.68-30.72L48.68-30.72Q48.64-31.52 49.72-32.16L49.72-32.16L49.72-32.16Q50.80-32.80 51.96-32.80L51.96-32.80L51.96-32.80Q52.60-32.80 53.02-32.54L53.02-32.54L53.02-32.54Q53.44-32.28 53.48-31.72L53.48-31.72L53.48-31.72Q53.64-29 53.64-25.68L53.64-25.68L53.64-25.68Q53.64-22.80 53.56-21.40L53.56-21.40L53.56-21.40Q55-22.68 56.36-24.08L56.36-24.08L57.56-25.24L57.56-25.24Q58.12-25.76 58.84-26.10L58.84-26.10L58.84-26.10Q59.56-26.44 60.28-26.44L60.28-26.44L60.28-26.44Q60.72-26.44 61.24-26.22L61.24-26.22L61.24-26.22Q61.76-26 61.76-25.60L61.76-25.60L61.76-25.60Q61.76-25.36 61.60-25.16L61.60-25.16L61.60-25.16Q59.16-21.72 54.48-18.08L54.48-18.08L54.48-18.08Q55.80-18.36 56.84-18.36L56.84-18.36L56.84-18.36Q59.76-18.36 61.20-16.44L61.20-16.44L61.20-16.44Q61.84-15.60 62.10-14.62L62.10-14.62L62.10-14.62Q62.36-13.64 62.48-12.68L62.48-12.68L62.48-12.68Q62.60-11.72 62.64-11.36L62.64-11.36ZM74.44-16.32L73.36-13.56L73.04-12.76L75.84-10.40L75.56-11.56L75.56-11.56Q75.28-12.68 74.44-16.32L74.44-16.32ZM77.92-25.24L77.92-25.24Q78.48-21.76 79.34-18.18L79.34-18.18L79.34-18.18Q80.20-14.60 81.44-9.96L81.44-9.96L81.44-9.96Q82.60-5.56 82.96-4.12L82.96-4.12L82.96-4.12Q83-4 83-3.76L83-3.76L83-3.76Q83-2.80 81.92-2.10L81.92-2.10L81.92-2.10Q80.84-1.40 79.68-1.40L79.68-1.40L79.68-1.40Q78.72-1.40 78.20-1.92L78.20-1.92L78.20-1.92Q77.04-3.16 75.76-4.28L75.76-4.28L75.76-4.28Q74.48-5.40 72.40-7.04L72.40-7.04L71.08-8.12L71.08-8.12Q69.40-4.52 68.48-2.80L68.48-2.80L68.48-2.80Q68.20-2.20 67.02-1.70L67.02-1.70L67.02-1.70Q65.84-1.20 64.84-1.20L64.84-1.20L64.84-1.20Q63.72-1.20 63.72-1.92L63.72-1.92L63.72-1.92Q63.72-2.12 63.84-2.40L63.84-2.40L63.84-2.40Q65.04-5.36 66.68-9.20L66.68-9.20L67.52-11.24L67.52-11.24Q66.52-12.24 66.52-12.24L66.52-12.24L66.52-12.24Q66.24-12.52 66.24-12.88L66.24-12.88L66.24-12.88Q66.24-13.56 67.12-14.18L67.12-14.18L67.12-14.18Q68-14.80 69.08-15L69.08-15L69.08-15Q71-19.60 72.68-24.36L72.68-24.36L72.68-24.36Q72.84-24.92 73.70-25.34L73.70-25.34L73.70-25.34Q74.56-25.76 75.52-25.88L75.52-25.88L75.52-25.88Q76.20-26.08 76.68-26.08L76.68-26.08L76.68-26.08Q77.80-26.08 77.92-25.24L77.92-25.24ZM97.60-33.56L97.60-33.56Q98.12-33.84 98.72-33.84L98.72-33.84L98.72-33.84Q99.56-33.84 100.28-33.36L100.28-33.36L100.28-33.36Q100.56-33.16 100.80-32.96L100.80-32.96L100.80-32.96Q101.04-32.76 101.24-32.60L101.24-32.60L101.24-32.60Q101.48-32.44 101.88-32.28L101.88-32.28L101.88-32.28Q102.28-32.12 102.56-31.96L102.56-31.96L102.56-31.96Q103.76-31.32 106.08-29.96L106.08-29.96L109.64-27.92L109.64-27.92Q112.72-26.16 115.04-24.88L115.04-24.88L117.60-23.52L117.60-23.52Q119.88-22.36 121.46-21.44L121.46-21.44L121.46-21.44Q123.04-20.52 124.40-19.36L124.40-19.36L124.40-19.36Q125.40-18.44 125.96-17.56L125.96-17.56L125.96-17.56Q126.52-16.68 126.52-15.64L126.52-15.64L126.48-15.20L126.48-15.20Q126.08-12.88 124.04-10.76L124.04-10.76L124.04-10.76Q122.48-9.08 120.38-7.88L120.38-7.88L120.38-7.88Q118.28-6.68 115.56-5.60L115.56-5.60L115.56-5.60Q110.92-3.84 104.92-2.44L104.92-2.44L104.92-2.44Q104.28-2.28 104.00-2.24L104.00-2.24L102.36-1.84L100.04-1.40L100.04-1.40Q98.96-1.20 97.40-1L97.40-1L97.40-1Q97.24-0.96 96.82-0.86L96.82-0.86L96.82-0.86Q96.40-0.76 96.08-0.76L96.08-0.76L96.08-0.76Q95.92-0.76 95.60-0.84L95.60-0.84L95.60-0.84Q94.76-1 94.76-1.84L94.76-1.84L94.76-1.84Q94.76-2.40 95.14-3.14L95.14-3.14L95.14-3.14Q95.52-3.88 95.92-4.32L95.92-4.32L95.92-4.32Q97.12-5.72 99.44-6.24L99.44-6.24L99.44-6.24Q99.92-6.36 100.02-6.50L100.02-6.50L100.02-6.50Q100.12-6.64 100.16-7.16L100.16-7.16L100.16-7.16Q100.16-7.88 100.24-9.32L100.24-9.32L100.24-9.32Q100.56-13.12 100.64-15.12L100.64-15.12L100.64-15.12Q100.80-17.04 100.84-18L100.84-18L100.84-18Q100.88-18.20 100.92-18.54L100.92-18.54L100.92-18.54Q100.96-18.88 100.96-19.36L100.96-19.36L100.96-19.36Q100.96-19.88 100.80-20.32L100.80-20.32L100.80-20.32Q99.96-22.36 98.12-25.36L98.12-25.36L98.12-25.36Q98.12-25.32 98.18-25.26L98.18-25.26L98.18-25.26Q98.24-25.20 98.28-25.04L98.28-25.04L98.28-25.04Q97.76-25.96 96.56-27.72L96.56-27.72L96.56-27.72Q96.40-27.92 96.20-28.24L96.20-28.24L96.20-28.24Q96.00-28.56 95.84-28.76L95.84-28.76L95.84-28.76Q95.72-28.88 95.52-29.10L95.52-29.10L95.52-29.10Q95.32-29.32 95.20-29.48L95.20-29.48L95.20-29.48Q95.00-29.88 95.00-30.20L95.00-30.20L95.00-30.20Q95.00-31.08 95.86-32.04L95.86-32.04L95.86-32.04Q96.72-33 97.60-33.56L97.60-33.56ZM107.36-9.44L106.92-7.80L106.92-7.80Q110.56-8.60 114.80-9.92L114.80-9.92L114.80-9.92Q117.08-10.64 118.52-11.24L118.52-11.24L118.52-11.24Q119.96-11.84 121.24-12.80L121.24-12.80L121.24-12.80Q120.08-14.20 118.62-15.22L118.62-15.22L118.62-15.22Q117.16-16.24 114.48-17.84L114.48-17.84L111.48-19.64L106.64-22.64L106.64-22.64Q108.12-18.44 108.12-14.76L108.12-14.76L108.12-14.76Q108.12-12.08 107.36-9.44L107.36-9.44ZM128-22.92L128-22.92Q128.04-23.72 129.16-24.34L129.16-24.34L129.16-24.34Q130.28-24.96 131.40-24.96L131.40-24.96L131.40-24.96Q132.04-24.96 132.44-24.70L132.44-24.70L132.44-24.70Q132.84-24.44 132.80-23.88L132.80-23.88L131.64-2.16L131.64-2.16Q131.60-1.32 130.48-0.70L130.48-0.70L130.48-0.70Q129.36-0.08 128.24-0.08L128.24-0.08L128.24-0.08Q126.76-0.08 126.80-1.24L126.80-1.24L128-22.92ZM127.92-28.20L127.92-28.20Q127.84-27.64 128.22-27.36L128.22-27.36L128.22-27.36Q128.60-27.08 129.24-27.08L129.24-27.08L129.24-27.08Q130.32-27.08 131.44-27.68L131.44-27.68L131.44-27.68Q132.56-28.28 132.68-29.12L132.68-29.12L132.68-29.12Q133-31.12 133.12-32.12L133.12-32.12L133.12-32.12Q133.28-33.12 131.88-33.12L131.88-33.12L131.88-33.12Q130.80-33.12 129.64-32.52L129.64-32.52L129.64-32.52Q128.48-31.92 128.40-31.16L128.40-31.16L127.92-28.20ZM140.72-14.68L141.88-15.64L141.88-15.64Q143.44-16.88 144.42-17.84L144.42-17.84L144.42-17.84Q145.40-18.80 145.92-19.76L145.92-19.76L145.92-19.76Q143.76-20.32 139.52-21.60L139.52-21.60L139.32-13.48L139.32-13.48Q140.52-14.48 140.72-14.68L140.72-14.68ZM148.32-10.04L148.32-10.04Q148.64-10.68 149.68-11.14L149.68-11.14L149.68-11.14Q150.72-11.60 151.68-11.60L151.68-11.60L151.68-11.60Q153-11.60 153-10.76L153-10.76L153-10.76Q153-10.52 152.88-10.20L152.88-10.20L152.88-10.20Q151.24-6.36 150.40-2.76L150.40-2.76L150.40-2.76Q150.20-1.96 149.24-1.28L149.24-1.28L149.24-1.28Q148.84-0.76 148.02-0.40L148.02-0.40L148.02-0.40Q147.20-0.04 146.40-0.04L146.40-0.04L146.40-0.04Q145.72-0.04 145.30-0.32L145.30-0.32L145.30-0.32Q144.88-0.60 144.84-1.20L144.84-1.20L144.84-1.20Q144.68-3.80 143.14-5.96L143.14-5.96L143.14-5.96Q141.60-8.12 139.20-8.76L139.20-8.76L139-2.96L139-2.96Q138.96-2.20 137.74-1.56L137.74-1.56L137.74-1.56Q136.52-0.92 135.40-0.92L135.40-0.92L135.40-0.92Q134.80-0.92 134.44-1.14L134.44-1.14L134.44-1.14Q134.08-1.36 134.08-1.84L134.08-1.84L134.20-7.36L134.20-7.36Q133.68-7.72 133.68-8.20L133.68-8.20L133.68-8.20Q133.68-8.76 134.28-9.28L134.28-9.28L134.28-9.28Q134.48-16.56 134.76-23.80L134.76-23.80L134.76-23.80Q134.80-24.64 135.90-25.26L135.90-25.26L135.90-25.26Q137-25.88 138.12-25.88L138.12-25.88L138.12-25.88Q138.96-25.88 139.32-25.48L139.32-25.48L139.32-25.48Q143.68-24.28 148.36-22.84L148.36-22.84L148.36-22.84Q149.08-23 149.36-23L149.36-23L149.36-23Q150.04-23 150.42-22.70L150.42-22.70L150.42-22.70Q150.80-22.40 150.80-21.80L150.80-21.80L150.80-21.80Q150.80-20.16 149.72-18.78L149.72-18.78L149.72-18.78Q148.64-17.40 146.72-15.72L146.72-15.72L145.92-15L145.92-15Q144-13.12 142.20-11.68L142.20-11.68L142.20-11.68Q145.48-10.76 147.48-8.04L147.48-8.04L147.48-8.04Q147.64-8.44 148.32-10.04L148.32-10.04ZM170.80-5.64L170.80-5.64Q171.40-5.44 171.40-4.92L171.40-4.92L171.40-4.92Q171.40-4.28 170.64-3.52L170.64-3.52L170.64-3.52Q169.80-2.68 168.48-2.68L168.48-2.68L168.48-2.68Q167.84-2.68 167.40-2.84L167.40-2.84L167.40-2.84Q165.28-3.52 163.56-3.52L163.56-3.52L163.56-3.52Q160.56-3.52 157.44-1.60L157.44-1.60L157.44-1.60Q156.92-1.24 156.18-1.02L156.18-1.02L156.18-1.02Q155.44-0.80 154.80-0.80L154.80-0.80L154.80-0.80Q154.20-0.80 153.84-1.02L153.84-1.02L153.84-1.02Q153.48-1.24 153.48-1.72L153.48-1.72L153.48-1.72Q153.48-2 153.56-2.20L153.56-2.20L153.56-2.20Q154.72-5.44 155.42-8.04L155.42-8.04L155.42-8.04Q156.12-10.64 156.36-13.32L156.36-13.32L156.36-13.32Q156.72-16.92 156.72-18.60L156.72-18.60L156.72-18.60Q156.72-23.04 155-25.40L155-25.40L155-25.40Q154.80-25.64 154.80-26.04L154.80-26.04L154.80-26.04Q154.80-26.84 155.92-27.54L155.92-27.54L155.92-27.54Q157.04-28.24 158.12-28.24L158.12-28.24L158.12-28.24Q158.84-28.24 159.16-27.92L159.16-27.92L159.16-27.92Q159.68-27.72 159.84-27.28L159.84-27.28L159.84-27.28Q160.84-24.64 162.60-22.82L162.60-22.82L162.60-22.82Q164.36-21 166.76-21L166.76-21L166.76-21Q167.20-21 168.08-21.16L168.08-21.16L168.08-21.16Q168.64-21.24 168.80-21.24L168.80-21.24L168.80-21.24Q169.48-21.24 169.82-20.94L169.82-20.94L169.82-20.94Q170.16-20.64 170.16-20.12L170.16-20.12L170.16-20.12Q170.16-19.56 169.70-19L169.70-19L169.70-19Q169.24-18.44 168.48-18.20L168.48-18.20L168.48-18.20Q166.84-17.64 165.20-17.64L165.20-17.64L165.20-17.64Q163.24-17.64 161.44-18.44L161.44-18.44L161.44-18.44Q161.36-16.20 161.24-15.08L161.24-15.08L160.96-12.56L160.96-12.56Q162.52-12.84 164.08-13.04L164.08-13.04L164.64-13.08L164.64-13.08Q166.24-13.08 166.24-12L166.24-12L166.24-12Q166.24-11.28 165.44-10.72L165.44-10.72L165.44-10.72Q164.64-10.16 163.80-10L163.80-10L163.80-10Q162.56-9.76 160.40-9.48L160.40-9.48L160.40-9.48Q159.96-7.52 159.44-5.80L159.44-5.80L159.44-5.80Q162.08-6.76 164.80-6.76L164.80-6.76L164.80-6.76Q167.80-6.76 170.80-5.64L170.80-5.64ZM186.88-17.56L186.88-17.56Q187.04-18.36 188.10-18.92L188.10-18.92L188.10-18.92Q189.16-19.48 190.20-19.48L190.20-19.48L190.20-19.48Q191.56-19.48 191.40-18.44L191.40-18.44L191.24-17.52L191.24-17.52Q190.64-14.12 190.02-11.78L190.02-11.78L190.02-11.78Q189.40-9.44 188.14-7.24L188.14-7.24L188.14-7.24Q186.88-5.04 184.84-3.76L184.84-3.76L184.84-3.76Q182.20-2.08 179.44-2.08L179.44-2.08L179.44-2.08Q177.80-2.08 176.38-2.76L176.38-2.76L176.38-2.76Q174.96-3.44 174.00-4.88L174.00-4.88L174.00-4.88Q172.32-7.36 172.32-10.56L172.32-10.56L172.32-10.56Q172.32-14.88 175.40-20.56L175.40-20.56L175.40-20.56Q176.44-22.52 177.58-23.68L177.58-23.68L177.58-23.68Q178.72-24.84 180.44-25.08L180.44-25.08L180.44-25.08Q180.60-25.12 180.88-25.12L180.88-25.12L180.88-25.12Q181.52-25.12 182.00-24.88L182.00-24.88L182.00-24.88Q183.20-27.52 183.84-28.84L183.84-28.84L183.84-28.84Q184.12-29.44 185.18-29.88L185.18-29.88L185.18-29.88Q186.24-30.32 187.16-30.32L187.16-30.32L187.16-30.32Q188.36-30.32 188.36-29.56L188.36-29.56L188.36-29.56Q188.36-29.40 188.24-29.08L188.24-29.08L188.24-29.08Q185.48-22.36 183.76-18.64L183.76-18.64L183.76-18.64Q183.48-18 182.46-17.56L182.46-17.56L182.46-17.56Q181.44-17.12 180.48-17.12L180.48-17.12L180.48-17.12Q179.84-17.12 179.44-17.32L179.44-17.32L179.44-17.32Q179.04-17.52 179.04-17.96L179.04-17.96L179.04-17.96Q179.04-18.24 179.20-18.56L179.20-18.56L179.80-19.92L179.80-19.92Q179.60-19.96 179.44-20.12L179.44-20.12L178.64-18.24L178.64-18.24Q177.52-15.80 177.16-13.36L177.16-13.36L177.16-13.36Q177.04-12.60 177.04-11.80L177.04-11.80L177.04-11.80Q177.04-10.08 177.56-8.56L177.56-8.56L177.56-8.56Q178.08-7.04 179.20-6.12L179.20-6.12L179.20-6.12Q180.12-5.32 181.00-5.32L181.00-5.32L181.00-5.32Q184.52-5.32 186.88-17.56L186.88-17.56ZM204.68-25.24L204.68-25.24Q205.52-25.32 205.98-25.04L205.98-25.04L205.98-25.04Q206.44-24.76 206.96-23.96L206.96-23.96L206.96-23.96Q207.28-23.44 207.28-23.08L207.28-23.08L207.28-23.08Q207.28-22.20 206.16-22.04L206.16-22.04L204.76-21.88L204.76-21.88Q202.80-21.60 202.68-21.60L202.68-21.60L202.68-21.60Q202-15.20 201.60-10.48L201.60-10.48L201.60-10.48Q201.20-5.76 201.08-1.16L201.08-1.16L201.08-1.16Q201.04-0.60 200.62-0.32L200.62-0.32L200.62-0.32Q200.20-0.04 199.52-0.04L199.52-0.04L199.52-0.04Q198.32-0.04 197.14-0.70L197.14-0.70L197.14-0.70Q195.96-1.36 196-2.20L196-2.20L196-2.20Q196.12-6.44 196.48-10.86L196.48-10.86L196.48-10.86Q196.84-15.28 197.44-21.12L197.44-21.12L194.92-20.80L194.92-20.80Q194.36-20.76 194.06-20.86L194.06-20.86L194.06-20.86Q193.76-20.96 193.48-21.32L193.48-21.32L193.48-21.32Q193.20-21.68 192.92-22.12L192.92-22.12L192.92-22.12Q192.60-22.56 192.60-23L192.60-23L192.60-23Q192.60-23.36 192.88-23.64L192.88-23.64L192.88-23.64Q193.16-23.92 193.72-24L193.72-24L193.72-24Q194.60-24.12 195.76-24.28L195.76-24.28L197.80-24.56L198.52-31.48L198.52-31.48Q198.64-32.60 200.16-32.60L200.16-32.60L200.16-32.60Q201.36-32.60 202.50-31.94L202.50-31.94L202.50-31.94Q203.64-31.28 203.56-30.44L203.56-30.44L203.04-25.08L203.04-25.08Q204.16-25.16 204.68-25.24L204.68-25.24ZM218.88-9.96L218.88-9.96Q219.80-12.12 219.80-14.40L219.80-14.40L219.80-14.40Q219.80-16.20 219.18-17.70L219.18-17.70L219.18-17.70Q218.56-19.20 217.24-20.16L217.24-20.16L217.24-20.16Q216.36-20.80 215.56-20.80L215.56-20.80L215.56-20.80Q215.24-20.80 214.76-20.64L214.76-20.64L214.76-20.64Q215.12-20.48 215.12-20.08L215.12-20.08L215.12-20.08Q215.12-19.84 214.96-19.52L214.96-19.52L214.96-19.52Q214.04-17.76 213.52-15.70L213.52-15.70L213.52-15.70Q213-13.64 213-11.56L213-11.56L213-11.56Q213-9.16 213.72-7L213.72-7L213.72-7Q214.20-5.80 214.72-5.12L214.72-5.12L214.72-5.12Q214.96-4.84 215.20-4.72L215.20-4.72L215.20-4.72Q216.36-5.52 217.30-6.96L217.30-6.96L217.30-6.96Q218.24-8.40 218.88-9.96L218.88-9.96ZM218.32-24L218.32-24Q220.28-23.60 221.68-22.28L221.68-22.28L221.68-22.28Q223.08-20.96 223.80-19.10L223.80-19.10L223.80-19.10Q224.52-17.24 224.52-15.24L224.52-15.24L224.52-15.24Q224.52-12.88 223.60-10.40L223.60-10.40L223.60-10.40Q222.68-7.92 221.08-5.84L221.08-5.84L221.08-5.84Q219.48-3.76 217.52-2.56L217.52-2.56L217.52-2.56Q215.68-1.44 213.92-1.44L213.92-1.44L213.92-1.44Q212.16-1.44 210.84-2.52L210.84-2.52L210.84-2.52Q209.52-3.60 208.92-5.64L208.92-5.64L208.92-5.64Q208.24-7.72 208.24-10.32L208.24-10.32L208.24-10.32Q208.24-11.88 208.48-13.36L208.48-13.36L208.48-13.36Q208.20-13.28 207.64-13.28L207.64-13.28L207.64-13.28Q206.28-13.28 206.28-14.20L206.28-14.20L206.28-14.20Q206.28-14.52 206.36-14.72L206.36-14.72L206.36-14.72Q207.72-18.52 210.46-21.34L210.46-21.34L210.46-21.34Q213.20-24.16 216.76-24.16L216.76-24.16L216.76-24.16Q217.28-24.16 218.32-24L218.32-24ZM232.28-14.68L233.44-15.64L233.44-15.64Q235-16.88 235.98-17.84L235.98-17.84L235.98-17.84Q236.96-18.80 237.48-19.76L237.48-19.76L237.48-19.76Q235.32-20.32 231.08-21.60L231.08-21.60L230.88-13.48L230.88-13.48Q232.08-14.48 232.28-14.68L232.28-14.68ZM239.88-10.04L239.88-10.04Q240.20-10.68 241.24-11.14L241.24-11.14L241.24-11.14Q242.28-11.60 243.24-11.60L243.24-11.60L243.24-11.60Q244.56-11.60 244.56-10.76L244.56-10.76L244.56-10.76Q244.56-10.52 244.44-10.20L244.44-10.20L244.44-10.20Q242.80-6.36 241.96-2.76L241.96-2.76L241.96-2.76Q241.76-1.96 240.80-1.28L240.80-1.28L240.80-1.28Q240.40-0.76 239.58-0.40L239.58-0.40L239.58-0.40Q238.76-0.04 237.96-0.04L237.96-0.04L237.96-0.04Q237.28-0.04 236.86-0.32L236.86-0.32L236.86-0.32Q236.44-0.60 236.40-1.20L236.40-1.20L236.40-1.20Q236.24-3.80 234.70-5.96L234.70-5.96L234.70-5.96Q233.16-8.12 230.76-8.76L230.76-8.76L230.56-2.96L230.56-2.96Q230.52-2.20 229.30-1.56L229.30-1.56L229.30-1.56Q228.08-0.92 226.96-0.92L226.96-0.92L226.96-0.92Q226.36-0.92 226-1.14L226-1.14L226-1.14Q225.64-1.36 225.64-1.84L225.64-1.84L225.76-7.36L225.76-7.36Q225.24-7.72 225.24-8.20L225.24-8.20L225.24-8.20Q225.24-8.76 225.84-9.28L225.84-9.28L225.84-9.28Q226.04-16.56 226.32-23.80L226.32-23.80L226.32-23.80Q226.36-24.64 227.46-25.26L227.46-25.26L227.46-25.26Q228.56-25.88 229.68-25.88L229.68-25.88L229.68-25.88Q230.52-25.88 230.88-25.48L230.88-25.48L230.88-25.48Q235.24-24.28 239.92-22.84L239.92-22.84L239.92-22.84Q240.64-23 240.92-23L240.92-23L240.92-23Q241.60-23 241.98-22.70L241.98-22.70L241.98-22.70Q242.36-22.40 242.36-21.80L242.36-21.80L242.36-21.80Q242.36-20.16 241.28-18.78L241.28-18.78L241.28-18.78Q240.20-17.40 238.28-15.72L238.28-15.72L237.48-15L237.48-15Q235.56-13.12 233.76-11.68L233.76-11.68L233.76-11.68Q237.04-10.76 239.04-8.04L239.04-8.04L239.04-8.04Q239.20-8.44 239.88-10.04L239.88-10.04ZM254.12-24.32L254.12-24.32Q254.04-25.16 255.18-25.82L255.18-25.82L255.18-25.82Q256.32-26.48 257.44-26.48L257.44-26.48L257.44-26.48Q258.68-26.48 258.80-25.64L258.80-25.64L258.80-25.64Q259.68-19.24 260.16-14.64L260.16-14.64L260.16-14.64Q260.64-10.04 260.64-5.52L260.64-5.52L260.64-5.52Q260.64 0.56 259.68 5.24L259.68 5.24L259.68 5.24Q258.92 8.96 257.48 11.92L257.48 11.92L257.48 11.92Q256.04 14.88 253.52 16.52L253.52 16.52L253.52 16.52Q251.44 17.84 249.32 17.84L249.32 17.84L249.32 17.84Q247.36 17.84 245.48 16.82L245.48 16.82L245.48 16.82Q243.60 15.80 241.96 14.04L241.96 14.04L241.96 14.04Q241.64 13.64 241.64 13.36L241.64 13.36L241.64 13.36Q241.64 12.56 242.78 11.86L242.78 11.86L242.78 11.86Q243.92 11.16 245.08 11.16L245.08 11.16L245.08 11.16Q245.88 11.16 246.32 11.60L246.32 11.60L246.32 11.60Q246.52 11.80 247.28 12.60L247.28 12.60L247.28 12.60Q248.04 13.40 248.86 13.96L248.86 13.96L248.86 13.96Q249.68 14.52 250.36 14.52L250.36 14.52L250.36 14.52Q250.72 14.52 250.88 14.44L250.88 14.44L250.88 14.44Q251.64 14.16 252.22 13.12L252.22 13.12L252.22 13.12Q252.80 12.08 253.16 11.20L253.16 11.20L253.16 11.20Q253.52 10.32 253.60 10.12L253.60 10.12L253.60 10.12Q254.56 7.72 255 5.06L255 5.06L255 5.06Q255.44 2.40 255.60-0.88L255.60-0.88L255.60-0.88Q255.68-3.44 255.68-4.76L255.68-4.76L255.68-4.76Q254.64-2.88 253.24-1.82L253.24-1.82L253.24-1.82Q251.84-0.76 249.84-0.76L249.84-0.76L249.84-0.76Q247-0.76 246.14-3.30L246.14-3.30L246.14-3.30Q245.28-5.84 245.24-9.52L245.24-9.52L245.20-11.12L245.20-11.12Q245.20-17.36 246.48-22.84L246.48-22.84L246.48-22.84Q246.64-23.60 247.84-24.20L247.84-24.20L247.84-24.20Q249.04-24.80 250.12-24.80L250.12-24.80L250.12-24.80Q250.68-24.80 251-24.56L251-24.56L251-24.56Q251.32-24.32 251.24-23.88L251.24-23.88L251.24-23.88Q250.32-19.24 250.08-13.84L250.08-13.84L250.08-13.84Q250-12.16 250-11.24L250-11.24L250-11.24Q250-9.72 250.20-7.84L250.20-7.84L250.20-7.84Q250.44-6.16 250.76-5.44L250.76-5.44L251.08-4.80L251.08-4.80Q251.36-5.32 251.84-6.36L251.84-6.36L251.84-6.36Q252.84-8.92 253.44-12.52L253.44-12.52L253.80-14.48L253.80-14.48Q254.56-18.04 254.56-20.12L254.56-20.12L254.56-20.12Q254.56-21.16 254.48-21.68L254.48-21.68L254.12-24.32Z" fill="url(#editing-gradient-gradient)"/></g></g><style>text {
  font-size: 64px;
  font-family: Arial Black;
  dominant-baseline: central;
  text-anchor: middle;
}</style></svg>